<svg id="visual" viewBox="0 0 900 600" width="900" height="600" xmlns="http://www.w3.org/2000/svg" xmlns:xlink="http://www.w3.org/1999/xlink" version="1.1"><g stroke-width="1" stroke-linejoin="bevel"><path d="M416 329.9L395 293.1L329 304.9Z" fill="#408dcd" stroke="#408dcd"></path><path d="M395 293.1L305 262.1L329 304.9Z" fill="#0e2f51" stroke="#0e2f51"></path><path d="M323 454.6L452 398.6L416 329.9Z" fill="#285c8d" stroke="#285c8d"></path><path d="M234 367.9L292 409.6L329 304.9Z" fill="#408dcd" stroke="#408dcd"></path><path d="M329 304.9L292 409.6L416 329.9Z" fill="#072543" stroke="#072543"></path><path d="M292 409.6L323 454.6L416 329.9Z" fill="#072543" stroke="#072543"></path><path d="M216 281.1L234 367.9L329 304.9Z" fill="#0e2f51" stroke="#0e2f51"></path><path d="M292 409.6L233 530.3L323 454.6Z" fill="#0e2f51" stroke="#0e2f51"></path><path d="M416 329.9L474 220.1L395 293.1Z" fill="#072543" stroke="#072543"></path><path d="M395 293.1L325 179.4L305 262.1Z" fill="#22507d" stroke="#22507d"></path><path d="M528 309.9L474 220.1L416 329.9Z" fill="#3a80bd" stroke="#3a80bd"></path><path d="M216 281.1L213 368.9L234 367.9Z" fill="#1b456e" stroke="#1b456e"></path><path d="M234 367.9L196 502.3L292 409.6Z" fill="#285c8d" stroke="#285c8d"></path><path d="M474 220.1L325 179.4L395 293.1Z" fill="#072543" stroke="#072543"></path><path d="M305 262.1L216 281.1L329 304.9Z" fill="#153a5f" stroke="#153a5f"></path><path d="M238 190.4L216 281.1L305 262.1Z" fill="#072543" stroke="#072543"></path><path d="M452 398.6L528 309.9L416 329.9Z" fill="#153a5f" stroke="#153a5f"></path><path d="M323 454.6L445 475.3L452 398.6Z" fill="#408dcd" stroke="#408dcd"></path><path d="M452 398.6L511 410.6L528 309.9Z" fill="#2e689d" stroke="#2e689d"></path><path d="M445 475.3L511 410.6L452 398.6Z" fill="#1b456e" stroke="#1b456e"></path><path d="M617 377.9L546 287.1L528 309.9Z" fill="#1b456e" stroke="#1b456e"></path><path d="M528 309.9L546 287.1L474 220.1Z" fill="#3a80bd" stroke="#3a80bd"></path><path d="M233 530.3L351 523.3L323 454.6Z" fill="#2e689d" stroke="#2e689d"></path><path d="M323 454.6L351 523.3L445 475.3Z" fill="#072543" stroke="#072543"></path><path d="M325 179.4L238 190.4L305 262.1Z" fill="#1b456e" stroke="#1b456e"></path><path d="M537 194.4L451 137.4L474 220.1Z" fill="#2e689d" stroke="#2e689d"></path><path d="M474 220.1L451 137.4L325 179.4Z" fill="#3a80bd" stroke="#3a80bd"></path><path d="M176 106.7L145 176.4L238 190.4Z" fill="#3474ad" stroke="#3474ad"></path><path d="M546 287.1L537 194.4L474 220.1Z" fill="#0e2f51" stroke="#0e2f51"></path><path d="M104 315.9L143 394.6L213 368.9Z" fill="#153a5f" stroke="#153a5f"></path><path d="M196 502.3L233 530.3L292 409.6Z" fill="#153a5f" stroke="#153a5f"></path><path d="M104 315.9L213 368.9L216 281.1Z" fill="#3474ad" stroke="#3474ad"></path><path d="M196 502.3L234 367.9L213 368.9Z" fill="#408dcd" stroke="#408dcd"></path><path d="M143 394.6L196 502.3L213 368.9Z" fill="#408dcd" stroke="#408dcd"></path><path d="M625 482.3L617 377.9L511 410.6Z" fill="#3a80bd" stroke="#3a80bd"></path><path d="M511 410.6L617 377.9L528 309.9Z" fill="#285c8d" stroke="#285c8d"></path><path d="M546 287.1L628 264.1L537 194.4Z" fill="#2e689d" stroke="#2e689d"></path><path d="M145 176.4L104 315.9L216 281.1Z" fill="#22507d" stroke="#22507d"></path><path d="M143 394.6L123 448.6L196 502.3Z" fill="#153a5f" stroke="#153a5f"></path><path d="M308 600L370 600L351 523.3Z" fill="#3474ad" stroke="#3474ad"></path><path d="M351 523.3L465 600L445 475.3Z" fill="#469ade" stroke="#469ade"></path><path d="M572 553.3L625 482.3L511 410.6Z" fill="#3a80bd" stroke="#3a80bd"></path><path d="M617 377.9L628 264.1L546 287.1Z" fill="#285c8d" stroke="#285c8d"></path><path d="M0 394.6L123 448.6L143 394.6Z" fill="#1b456e" stroke="#1b456e"></path><path d="M149 600L308 600L233 530.3Z" fill="#469ade" stroke="#469ade"></path><path d="M309 52.7L238 190.4L325 179.4Z" fill="#153a5f" stroke="#153a5f"></path><path d="M238 190.4L145 176.4L216 281.1Z" fill="#22507d" stroke="#22507d"></path><path d="M233 530.3L308 600L351 523.3Z" fill="#22507d" stroke="#22507d"></path><path d="M149 600L233 530.3L196 502.3Z" fill="#285c8d" stroke="#285c8d"></path><path d="M472 53.7L399 60.7L451 137.4Z" fill="#285c8d" stroke="#285c8d"></path><path d="M451 137.4L399 60.7L325 179.4Z" fill="#469ade" stroke="#469ade"></path><path d="M521 84.7L451 137.4L537 194.4Z" fill="#285c8d" stroke="#285c8d"></path><path d="M370 600L465 600L351 523.3Z" fill="#153a5f" stroke="#153a5f"></path><path d="M399 60.7L309 52.7L325 179.4Z" fill="#469ade" stroke="#469ade"></path><path d="M635 122.7L521 84.7L537 194.4Z" fill="#3a80bd" stroke="#3a80bd"></path><path d="M309 52.7L176 106.7L238 190.4Z" fill="#1b456e" stroke="#1b456e"></path><path d="M572 553.3L511 410.6L445 475.3Z" fill="#153a5f" stroke="#153a5f"></path><path d="M617 377.9L682 380.9L628 264.1Z" fill="#408dcd" stroke="#408dcd"></path><path d="M521 84.7L472 53.7L451 137.4Z" fill="#469ade" stroke="#469ade"></path><path d="M399 60.7L349 0L309 52.7Z" fill="#2e689d" stroke="#2e689d"></path><path d="M465 600L572 553.3L445 475.3Z" fill="#408dcd" stroke="#408dcd"></path><path d="M716 518.3L660 441.6L625 482.3Z" fill="#2e689d" stroke="#2e689d"></path><path d="M625 482.3L660 441.6L617 377.9Z" fill="#072543" stroke="#072543"></path><path d="M692 225.1L634 168.4L628 264.1Z" fill="#285c8d" stroke="#285c8d"></path><path d="M628 264.1L634 168.4L537 194.4Z" fill="#1b456e" stroke="#1b456e"></path><path d="M660 441.6L682 380.9L617 377.9Z" fill="#285c8d" stroke="#285c8d"></path><path d="M145 176.4L55 253.1L104 315.9Z" fill="#22507d" stroke="#22507d"></path><path d="M0 394.6L60 504.3L123 448.6Z" fill="#3a80bd" stroke="#3a80bd"></path><path d="M68 85.7L82 183.4L145 176.4Z" fill="#3a80bd" stroke="#3a80bd"></path><path d="M82 183.4L55 253.1L145 176.4Z" fill="#22507d" stroke="#22507d"></path><path d="M660 441.6L689 393.6L682 380.9Z" fill="#3474ad" stroke="#3474ad"></path><path d="M682 380.9L692 225.1L628 264.1Z" fill="#072543" stroke="#072543"></path><path d="M428 0L349 0L399 60.7Z" fill="#3a80bd" stroke="#3a80bd"></path><path d="M309 52.7L262 0L176 106.7Z" fill="#1b456e" stroke="#1b456e"></path><path d="M472 53.7L428 0L399 60.7Z" fill="#0e2f51" stroke="#0e2f51"></path><path d="M517 0L428 0L472 53.7Z" fill="#0e2f51" stroke="#0e2f51"></path><path d="M517 0L472 53.7L521 84.7Z" fill="#469ade" stroke="#469ade"></path><path d="M465 600L577 600L572 553.3Z" fill="#3a80bd" stroke="#3a80bd"></path><path d="M572 553.3L637 600L625 482.3Z" fill="#072543" stroke="#072543"></path><path d="M660 441.6L794 465.6L689 393.6Z" fill="#285c8d" stroke="#285c8d"></path><path d="M682 73.7L635 122.7L746 136.4Z" fill="#22507d" stroke="#22507d"></path><path d="M634 168.4L635 122.7L537 194.4Z" fill="#285c8d" stroke="#285c8d"></path><path d="M801 308.9L692 225.1L682 380.9Z" fill="#469ade" stroke="#469ade"></path><path d="M60 504.3L196 502.3L123 448.6Z" fill="#0e2f51" stroke="#0e2f51"></path><path d="M60 504.3L149 600L196 502.3Z" fill="#3474ad" stroke="#3474ad"></path><path d="M349 0L262 0L309 52.7Z" fill="#285c8d" stroke="#285c8d"></path><path d="M176 106.7L68 85.7L145 176.4Z" fill="#072543" stroke="#072543"></path><path d="M0 394.6L143 394.6L104 315.9Z" fill="#2e689d" stroke="#2e689d"></path><path d="M634 0L517 0L521 84.7Z" fill="#22507d" stroke="#22507d"></path><path d="M55 253.1L0 347.9L104 315.9Z" fill="#3a80bd" stroke="#3a80bd"></path><path d="M0 218.1L0 347.9L55 253.1Z" fill="#0e2f51" stroke="#0e2f51"></path><path d="M262 0L209 0L176 106.7Z" fill="#408dcd" stroke="#408dcd"></path><path d="M0 347.9L0 394.6L104 315.9Z" fill="#469ade" stroke="#469ade"></path><path d="M577 600L637 600L572 553.3Z" fill="#2e689d" stroke="#2e689d"></path><path d="M60 504.3L91 600L149 600Z" fill="#22507d" stroke="#22507d"></path><path d="M0 600L91 600L60 504.3Z" fill="#3a80bd" stroke="#3a80bd"></path><path d="M0 166.4L0 218.1L82 183.4Z" fill="#285c8d" stroke="#285c8d"></path><path d="M82 183.4L0 218.1L55 253.1Z" fill="#153a5f" stroke="#153a5f"></path><path d="M111 0L68 85.7L176 106.7Z" fill="#1b456e" stroke="#1b456e"></path><path d="M637 600L716 518.3L625 482.3Z" fill="#3474ad" stroke="#3474ad"></path><path d="M848 237.1L746 136.4L692 225.1Z" fill="#408dcd" stroke="#408dcd"></path><path d="M68 85.7L0 166.4L82 183.4Z" fill="#469ade" stroke="#469ade"></path><path d="M0 394.6L0 500.3L60 504.3Z" fill="#469ade" stroke="#469ade"></path><path d="M746 136.4L635 122.7L634 168.4Z" fill="#22507d" stroke="#22507d"></path><path d="M635 122.7L634 0L521 84.7Z" fill="#408dcd" stroke="#408dcd"></path><path d="M746 136.4L634 168.4L692 225.1Z" fill="#408dcd" stroke="#408dcd"></path><path d="M209 0L111 0L176 106.7Z" fill="#469ade" stroke="#469ade"></path><path d="M68 85.7L0 91.7L0 166.4Z" fill="#285c8d" stroke="#285c8d"></path><path d="M801 308.9L682 380.9L689 393.6Z" fill="#3474ad" stroke="#3474ad"></path><path d="M726 0L634 0L682 73.7Z" fill="#285c8d" stroke="#285c8d"></path><path d="M682 73.7L634 0L635 122.7Z" fill="#1b456e" stroke="#1b456e"></path><path d="M794 465.6L801 308.9L689 393.6Z" fill="#408dcd" stroke="#408dcd"></path><path d="M0 0L0 91.7L68 85.7Z" fill="#0e2f51" stroke="#0e2f51"></path><path d="M637 600L725 600L716 518.3Z" fill="#3474ad" stroke="#3474ad"></path><path d="M716 518.3L794 465.6L660 441.6Z" fill="#153a5f" stroke="#153a5f"></path><path d="M782 500.3L794 465.6L716 518.3Z" fill="#072543" stroke="#072543"></path><path d="M725 600L782 500.3L716 518.3Z" fill="#3474ad" stroke="#3474ad"></path><path d="M0 500.3L0 600L60 504.3Z" fill="#408dcd" stroke="#408dcd"></path><path d="M840 165.4L780 88.7L746 136.4Z" fill="#1b456e" stroke="#1b456e"></path><path d="M746 136.4L780 88.7L682 73.7Z" fill="#072543" stroke="#072543"></path><path d="M780 88.7L726 0L682 73.7Z" fill="#3474ad" stroke="#3474ad"></path><path d="M801 308.9L848 237.1L692 225.1Z" fill="#153a5f" stroke="#153a5f"></path><path d="M900 279.1L848 237.1L801 308.9Z" fill="#22507d" stroke="#22507d"></path><path d="M111 0L0 0L68 85.7Z" fill="#072543" stroke="#072543"></path><path d="M848 237.1L840 165.4L746 136.4Z" fill="#285c8d" stroke="#285c8d"></path><path d="M780 88.7L778 0L726 0Z" fill="#408dcd" stroke="#408dcd"></path><path d="M900 509.3L900 457.6L794 465.6Z" fill="#408dcd" stroke="#408dcd"></path><path d="M794 465.6L900 326.9L801 308.9Z" fill="#1b456e" stroke="#1b456e"></path><path d="M725 600L816 600L782 500.3Z" fill="#3474ad" stroke="#3474ad"></path><path d="M900 78.7L778 0L780 88.7Z" fill="#1b456e" stroke="#1b456e"></path><path d="M848 237.1L900 170.4L840 165.4Z" fill="#153a5f" stroke="#153a5f"></path><path d="M900 457.6L900 326.9L794 465.6Z" fill="#2e689d" stroke="#2e689d"></path><path d="M900 326.9L900 279.1L801 308.9Z" fill="#22507d" stroke="#22507d"></path><path d="M840 165.4L900 78.7L780 88.7Z" fill="#153a5f" stroke="#153a5f"></path><path d="M900 509.3L794 465.6L782 500.3Z" fill="#285c8d" stroke="#285c8d"></path><path d="M900 279.1L900 170.4L848 237.1Z" fill="#22507d" stroke="#22507d"></path><path d="M816 600L900 509.3L782 500.3Z" fill="#153a5f" stroke="#153a5f"></path><path d="M900 170.4L900 78.7L840 165.4Z" fill="#0e2f51" stroke="#0e2f51"></path><path d="M816 600L900 600L900 509.3Z" fill="#469ade" stroke="#469ade"></path><path d="M900 78.7L900 0L778 0Z" fill="#408dcd" stroke="#408dcd"></path></g></svg>